<?xml version="1.0" encoding="UTF-8"?>
<svg id="Camada_2" data-name="Camada 2" xmlns="http://www.w3.org/2000/svg" viewBox="0 0 559.25 123.18">
  <defs>
    <style>
      .cls-1 {
        fill: #2fe0be;
      }

      .cls-2 {
        fill: #fff;
      }
    </style>
  </defs>
  <g id="Camada_1-2" data-name="Camada 1">
    <g>
      <g>
        <path class="cls-1" d="M164.91,0h-25.44c-29.75,41.06-59.51,82.12-89.26,123.18h25.29C105.31,82.12,135.11,41.06,164.91,0Z"/>
        <path class="cls-1" d="M120.54,103.39h-5.36c-4.81,6.6-9.62,13.19-14.43,19.79h19.79c4.81-6.6,9.62-13.19,14.43-19.79h-14.43Z"/>
        <path class="cls-1" d="M39.72,103.39c20.93-28.81,41.85-57.62,62.78-86.43v-.15c4.16-5.65,8.18-11.31,12.2-16.81H28.27c-4.61,6.55-9.37,13.09-14.13,19.64v.15h60.85L17.41,99.23c-1.79,2.38-3.42,4.61-5.06,6.99-4.17,5.65-8.33,11.31-12.35,16.96h25.29c4.81-6.6,9.62-13.19,14.43-19.79Z"/>
      </g>
      <g>
        <g>
          <path class="cls-2" d="M190.7,103.5V19.68h32.2c21.87,0,32.8,10.97,32.8,32.92v17.98c0,21.95-10.94,32.92-32.8,32.92h-32.2ZM205.52,90.02h18.23c11.42,0,17.13-5.71,17.13-17.13v-22.6c0-11.42-5.71-17.13-17.13-17.13h-18.23v56.86Z"/>
          <path class="cls-2" d="M288.51,103.5c-12.8,0-19.2-6.32-19.2-18.95s6.4-18.95,19.2-18.95h18.71v-7.89c0-3.73-1.86-5.59-5.59-5.59h-25.76v-7.65l6.32-4.74h20.17c12.71,0,19.07,6.4,19.07,19.2v44.59h-32.92ZM283.52,85.52c0,3.73,1.86,5.59,5.59,5.59h18.1v-14.45h-18.1c-3.73,0-5.59,1.82-5.59,5.47v3.4Z"/>
          <path class="cls-2" d="M338.68,84.31V19.68h14.21v20.05h21.75v12.39h-21.75v33.41c0,3.73,1.86,5.59,5.59,5.59h17.37v7.66l-6.44,4.74h-11.54c-12.8,0-19.2-6.4-19.2-19.2Z"/>
          <path class="cls-2" d="M405.13,103.5c-12.8,0-19.2-6.32-19.2-18.95s6.4-18.95,19.2-18.95h18.71v-7.89c0-3.73-1.86-5.59-5.59-5.59h-25.76v-7.65l6.32-4.74h20.17c12.71,0,19.07,6.4,19.07,19.2v44.59h-32.92ZM400.15,85.52c0,3.73,1.86,5.59,5.59,5.59h18.1v-14.45h-18.1c-3.73,0-5.59,1.82-5.59,5.47v3.4Z"/>
        </g>
        <path class="cls-2" d="M548.04,19.67c1.88,0,3.72.49,5.52,1.45,1.79.97,3.19,2.35,4.19,4.15,1,1.8,1.5,3.68,1.5,5.63s-.49,3.79-1.48,5.57c-.99,1.78-2.37,3.17-4.15,4.16-1.78.99-3.64,1.48-5.58,1.48s-3.8-.49-5.58-1.48c-1.78-.99-3.16-2.37-4.16-4.16-.99-1.78-1.48-3.64-1.48-5.57s.5-3.83,1.51-5.63c1.01-1.8,2.4-3.18,4.2-4.15,1.79-.96,3.63-1.45,5.52-1.45ZM548.04,21.53c-1.57,0-3.11.4-4.6,1.21-1.49.8-2.66,1.96-3.5,3.46-.84,1.5-1.27,3.07-1.27,4.69s.42,3.16,1.24,4.64c.83,1.48,1.98,2.64,3.47,3.47,1.48.83,3.04,1.24,4.65,1.24s3.17-.42,4.65-1.24c1.49-.83,2.64-1.98,3.46-3.47.82-1.48,1.24-3.03,1.24-4.64s-.42-3.19-1.26-4.69c-.84-1.5-2.01-2.66-3.5-3.46-1.5-.81-3.03-1.21-4.59-1.21ZM543.12,37.1v-12.07h4.15c1.42,0,2.44.11,3.08.33.63.22,1.14.61,1.52,1.17.38.56.57,1.14.57,1.77,0,.88-.32,1.65-.94,2.3-.63.65-1.46,1.02-2.5,1.1.43.17.77.39,1.03.64.48.47,1.08,1.27,1.78,2.39l1.47,2.36h-2.38l-1.07-1.9c-.84-1.5-1.52-2.44-2.04-2.81-.36-.28-.88-.42-1.56-.42h-1.14v5.13h-1.95ZM545.07,30.3h2.36c1.13,0,1.9-.17,2.31-.51.41-.33.61-.78.61-1.33,0-.36-.1-.68-.29-.96-.2-.28-.48-.49-.83-.63-.35-.14-1-.21-1.96-.21h-2.21v3.64Z"/>
        <g>
          <path class="cls-1" d="M518.72,31.22v-.1c2.83-3.85,5.57-7.69,8.3-11.44h-58.82c-3.14,4.45-6.38,8.91-9.62,13.36v.1h41.41l-39.18,54.06c-1.21,1.62-2.33,3.14-3.44,4.76-2.84,3.85-5.67,7.69-8.4,11.54h61.15c3.24-4.56,6.58-9.01,9.82-13.47h-43.94l42.73-58.82Z"/>
          <path class="cls-1" d="M536.82,90.04h-3.65c-3.27,4.49-6.55,8.98-9.82,13.47h13.47c3.27-4.49,6.55-8.98,9.82-13.47h-9.82Z"/>
        </g>
      </g>
    </g>
  </g>
</svg>