<?xml version="1.0" encoding="UTF-8"?>
<svg id="Camada_2" data-name="Camada 2" xmlns="http://www.w3.org/2000/svg" viewBox="0 0 83.02 62.01">
  <defs>
    <style>
      .cls-1 {
        fill: #fff;
      }
    </style>
  </defs>
  <g id="Camada_1-2" data-name="Camada 1">
    <g>
      <path class="cls-1" d="M83.02,0h-12.81c-14.98,20.67-29.96,41.34-44.94,62.01h12.73C53.02,41.34,68.02,20.67,83.02,0Z"/>
      <path class="cls-1" d="M60.68,52.05h-2.7c-2.42,3.32-4.84,6.64-7.26,9.96h9.96c2.42-3.32,4.84-6.64,7.26-9.96h-7.26Z"/>
      <path class="cls-1" d="M20,52.05c10.53-14.5,21.07-29.01,31.6-43.51v-.07c2.1-2.85,4.12-5.69,6.14-8.46H14.23c-2.32,3.3-4.72,6.59-7.11,9.89v.07h30.63L8.76,49.95c-.9,1.2-1.72,2.32-2.55,3.52-2.1,2.85-4.19,5.69-6.22,8.54h12.73c2.42-3.32,4.84-6.64,7.26-9.96Z"/>
    </g>
  </g>
</svg>