<?xml version="1.0" encoding="UTF-8"?>
<svg id="Camada_2" data-name="Camada 2" xmlns="http://www.w3.org/2000/svg" viewBox="0 0 131.34 32.46">
  <defs>
    <style>
      .cls-1 {
        fill: #fff;
      }
    </style>
  </defs>
  <g id="Camada_11" data-name="Camada 11">
    <g>
      <g>
        <path class="cls-1" d="M4.23,10.94v1.07c0,3.49,2.83,6.31,6.31,6.31h25.32c1.2,0,2.18.97,2.18,2.18v1.66c0,.4-.32.73-.73.73H10.89C4.87,22.89,0,18.01,0,12v-1.06C0,4.93,4.87.06,10.89.06h26.43c.4,0,.73.32.73.73v1.66c0,1.2-.98,2.18-2.18,2.18H10.54c-3.49,0-6.31,2.83-6.31,6.31"/>
        <path class="cls-1" d="M82.56,4.57h-28.99c-1.26,0-2.28,1.38-2.28,2.65s1.02,2.28,2.28,2.28h24.68c3.78,0,6.85,2.7,6.85,6.49,0,3.78-3.07,6.85-6.85,6.85h-30.1c-.4,0-.73-.32-.73-.73v-1.66c0-1.2.97-2.18,2.18-2.18h28.99c1.26,0,2.28-1.02,2.28-2.28s-1.02-2.28-2.28-2.28h-24.68c-3.78,0-6.85-2.7-6.85-6.49S50.12,0,53.91,0h30.1c.4,0,.73.32.73.73v1.66c0,1.2-.98,2.18-2.18,2.18"/>
        <path class="cls-1" d="M131.34,1.23c0,.36-.17.7-.45.92l-11.61,8.99c-.19.14-.19.43,0,.57l11.61,8.95c.29.22.46.56.46.93v.02c0,.65-.52,1.17-1.17,1.17h-1.57c-.96,0-1.89-.32-2.65-.9l-9.45-7.29c-.76-.58-1.69-.9-2.65-.9h-2.89c-.96,0-1.89.32-2.65.9l-9.45,7.29c-.76.58-1.69.9-2.65.9h-1.57c-.65,0-1.17-.52-1.17-1.17v-.02c0-.36.17-.7.46-.93l11.61-8.95c.19-.14.19-.43,0-.57l-11.61-8.99c-.29-.22-.45-.56-.45-.93,0-.65.52-1.17,1.17-1.17.67,0,1.19,0,1.6,0,.96,0,1.88.32,2.64.9l9.39,7.28c.76.59,1.69.91,2.65.91h2.95c.96,0,1.89-.32,2.65-.91l9.39-7.28c.76-.59,1.68-.9,2.64-.9.41,0,.93,0,1.6,0,.65,0,1.17.52,1.17,1.17"/>
      </g>
      <g>
        <path class="cls-1" d="M48.88,28.02h6.83c.08,0,.14.06.14.14v.32c0,.23-.19.42-.42.42h-2.79s-.07.03-.07.07v3.06c0,.23-.19.42-.42.42h-.26c-.08,0-.14-.06-.14-.14v-3.34s-.03-.07-.07-.07h-3.08c-.08,0-.14-.06-.14-.14v-.32c0-.23.19-.42.42-.42Z"/>
        <path class="cls-1" d="M59.2,28.9c-.68,0-1.23.55-1.23,1.23v.21c0,.68.55,1.23,1.23,1.23h4.92c.23,0,.42.19.42.42v.32c0,.08-.06.14-.14.14h-5.14c-1.17,0-2.12-.95-2.12-2.12v-.21c0-1.17.95-2.12,2.12-2.12h5.14c.08,0,.14.06.14.14v.32c0,.23-.19.42-.42.42h-4.92ZM58.8,30.22c0-.23.19-.42.42-.42h4.37c.08,0,.14.06.14.14v.25c0,.23-.19.42-.42.42h-4.11c-.22,0-.39-.18-.39-.39Z"/>
        <path class="cls-1" d="M67.07,30.13v.21c0,.68.55,1.23,1.23,1.23h4.92c.23,0,.42.19.42.42v.32c0,.08-.06.14-.14.14h-5.14c-1.17,0-2.12-.95-2.12-2.12v-.21c0-1.17.95-2.12,2.12-2.12h5.14c.08,0,.14.06.14.14v.32c0,.23-.19.42-.42.42h-4.92c-.68,0-1.23.55-1.23,1.23Z"/>
        <path class="cls-1" d="M82.48,28.02h.26c.08,0,.14.06.14.14v3.87c0,.23-.19.42-.42.42h-.26c-.08,0-.14-.06-.14-.14v-1.56s-.03-.07-.07-.07h-5.61s-.07.03-.07.07v1.28c0,.23-.19.42-.42.42h-.26c-.08,0-.14-.06-.14-.14v-3.87c0-.23.19-.42.42-.42h.26c.08,0,.14.06.14.14v1.56s.03.07.07.07h5.61s.07-.03.07-.07v-1.28c0-.23.19-.42.42-.42Z"/>
      </g>
    </g>
  </g>
</svg>