<?xml version="1.0" encoding="UTF-8"?>
<svg id="Camada_2" data-name="Camada 2" xmlns="http://www.w3.org/2000/svg" viewBox="0 0 686.3 133.09">
  <defs>
    <style>
      .cls-1 {
        fill: #bc0000;
      }

      .cls-2 {
        fill: #fff;
      }
    </style>
  </defs>
  <g id="Camada_1-2" data-name="Camada 1">
    <g>
      <path class="cls-2" d="M675.92,41.38c1.75,0,3.44.44,5.1,1.34s2.96,2.18,3.89,3.84c.93,1.66,1.39,3.4,1.39,5.21s-.46,3.51-1.37,5.16c-.91,1.65-2.19,2.93-3.83,3.84-1.65.92-3.37,1.37-5.17,1.37s-3.52-.45-5.16-1.37c-1.65-.91-2.93-2.19-3.85-3.84-.91-1.65-1.37-3.37-1.37-5.16s.46-3.54,1.4-5.21c.93-1.66,2.22-2.95,3.89-3.84s3.37-1.34,5.1-1.34ZM675.92,43.11c-1.46,0-2.88.37-4.26,1.12-1.38.75-2.45,1.82-3.24,3.21s-1.17,2.84-1.17,4.34.38,2.93,1.15,4.3c.76,1.37,1.83,2.44,3.21,3.2,1.37.77,2.81,1.15,4.3,1.15s2.93-.38,4.31-1.15c1.37-.77,2.45-1.83,3.2-3.2.76-1.37,1.14-2.8,1.14-4.3s-.38-2.95-1.16-4.34c-.78-1.39-1.86-2.46-3.25-3.21-1.38-.74-2.8-1.12-4.25-1.12ZM671.37,57.51v-11.18h3.83c1.31,0,2.27.11,2.85.32.58.2,1.05.56,1.4,1.08.35.51.53,1.06.53,1.64,0,.82-.3,1.53-.88,2.13s-1.35.95-2.32,1.02c.39.16.71.36.95.59.45.44,1.01,1.18,1.65,2.22l1.36,2.19h-2.2l-1-1.76c-.78-1.38-1.41-2.25-1.88-2.6-.33-.26-.81-.38-1.44-.38h-1.07v4.75h-1.8ZM673.17,51.23h2.19c1.05,0,1.76-.16,2.14-.47.38-.32.57-.72.57-1.24,0-.32-.09-.62-.27-.89-.19-.26-.44-.45-.77-.58s-.93-.2-1.81-.2h-2.05v3.37Z"/>
      <g>
        <path class="cls-2" d="M189.32,92.69v-52.3h19.81v52.3h-19.81Z"/>
        <path class="cls-2" d="M300.81,92.69h-27.35l-22.54-18,17.82-14.72c2.34-2.02,4.67-4.03,7.01-6.05h-32.98v38.77h-19.81v-52.3h70.11c.06,1.77.13,3.54.2,5.3v8.45c0,3.66-.77,7.47-5.83,10.68l-12.78,8.45,26.15,19.42Z"/>
        <path class="cls-2" d="M378.85,49.82v33.47c0,5.15-4.81,9.41-10.72,9.41h-61.56v-42.88c0-5.16,4.88-9.42,10.8-9.42h61.49v9.42ZM359.04,53.92h-32.67v25.25h32.67v-25.25Z"/>
        <path class="cls-2" d="M462.09,49.82v42.88h-19.81v-38.77h-30.26v38.77h-19.81v-52.3h59.67c5.66.3,10.21,4.41,10.21,9.42Z"/>
        <path class="cls-2" d="M549.2,78.95v13.74h-73.56v-52.3h70.2c.04,1.77.07,3.54.11,5.3v8.45c0,3.66-.43,7.7-5.83,10.68l-2.14,1.12,4.29,2.31c5.49,2.91,6.94,7.02,6.94,10.68ZM524.69,73.49l-10.21-8.22,6.94-5.75c2.24-1.87,4.48-3.73,6.73-5.6h-32.7v25.25h36.5c-2.42-1.89-4.84-3.78-7.26-5.68Z"/>
        <path class="cls-2" d="M561.12,92.69v-52.3h19.81v52.3h-19.81Z"/>
        <path class="cls-2" d="M616.2,53.92h-26.58v-13.52h72.71c-4.15,4.51-8.29,9.02-12.44,13.52h-13.89v38.77h-19.81v-38.77Z"/>
      </g>
      <g>
        <path class="cls-2" d="M94.85,26.87h-28.31v24.56c4.72-3.47,9.44-6.93,14.15-10.4v12.47c-4.72,3.47-9.44,6.94-14.15,10.4v10.41c4.72-3.47,9.44-6.93,14.15-10.4v12.48c-4.72,3.47-9.44,6.93-14.15,10.4v19.45c9.44-6.51,18.87-13.02,28.31-19.53V26.87Z"/>
        <path class="cls-2" d="M52.39,95.82V26.87h-14.15v59.83c4.72,3.04,9.44,6.08,14.15,9.12h0Z"/>
        <path class="cls-1" d="M0,0v133.09h133.09V0H0ZM38.24,86.7V26.87h14.15v68.96h0c-4.72-3.04-9.44-6.08-14.15-9.12ZM94.85,86.7c-9.44,6.51-18.87,13.02-28.31,19.53v-19.45c4.72-3.47,9.44-6.94,14.15-10.4v-12.48c-4.72,3.47-9.44,6.93-14.15,10.4v-10.41c4.72-3.47,9.44-6.94,14.15-10.4v-12.47c-4.72,3.47-9.44,6.93-14.15,10.4v-24.56h28.31v59.83Z"/>
      </g>
    </g>
  </g>
</svg>