<?xml version="1.0" encoding="UTF-8"?>
<svg id="Camada_2" data-name="Camada 2" xmlns="http://www.w3.org/2000/svg" viewBox="0 0 641.7 168.85">
  <defs>
    <style>
      .cls-1 {
        fill: #fff;
      }

      .cls-2 {
        fill: #e53215;
      }
    </style>
  </defs>
  <g id="Camada_1-2" data-name="Camada 1">
    <g>
      <g>
        <path class="cls-2" d="M222.89,60.83h43.77v11.84h-29.09v8.45h23.83v10.26h-23.83v9.24h29.09v11.84h-43.77v-51.61Z"/>
        <polygon class="cls-2" points="199.08 60.83 177.68 60.83 163 60.83 163 75.51 163 112.44 177.68 112.44 177.68 75.51 199.08 75.51 199.08 112.44 213.75 112.44 213.75 75.51 213.75 60.83 199.08 60.83"/>
        <polygon class="cls-2" points="312.42 86.63 325.92 73.14 325.92 60.83 315.1 60.83 300.86 75.07 286.62 60.83 275.8 60.83 275.8 73.14 289.3 86.63 275.8 100.13 275.8 112.44 286.62 112.44 300.86 98.2 315.1 112.44 325.92 112.44 325.92 100.13 312.42 86.63"/>
      </g>
      <g>
        <path class="cls-1" d="M335.05,60.83h43.05v11.84h-28.37v8.05h23.11v11.05h-23.11v20.67h-14.69v-51.61Z"/>
        <path class="cls-1" d="M566.72,60.83h43.77v11.84h-29.09v8.45h23.83v10.26h-23.83v9.24h29.09v11.84h-43.77v-51.61Z"/>
        <path class="cls-1" d="M424.17,60.83h-36.93v51.61h51.61v-51.61h-14.68ZM424.17,97.76h-22.25v-22.25h22.25v22.25Z"/>
        <polygon class="cls-1" points="557.59 80.72 557.59 80.72 542.91 80.72 533.28 80.72 533.28 91.76 542.91 91.76 542.91 97.76 520.66 97.76 520.66 75.51 533.28 75.51 542.91 75.51 557.59 75.51 557.59 60.83 542.91 60.83 520.66 60.83 505.98 60.83 505.98 75.51 505.98 97.76 505.98 112.44 520.66 112.44 542.91 112.44 557.59 112.44 557.59 97.76 557.59 91.76 557.59 91.76 557.59 80.72"/>
        <path class="cls-1" d="M484.86,96.26h9.8v-35.43h-46.67v51.61h14.69v-16.18h6.25l10.51,16.18h17.4l-11.98-16.18ZM462.68,84.42v-11.76h17.3v11.76h-17.3Z"/>
      </g>
      <path class="cls-2" d="M71.33,79.88l4.33-4.23,26.05-26.15,20.47-20.48V.1l-50.85,50.85-4.83,4.83-5.36,5.36-10.29-10.29-30.38-30.38L0,0v107.76l20.48,20.48V49.51l30.38,30.38v78.73l10.24,10.24c3.41-3.41,6.82-6.83,10.24-10.24v-20.76l4.23-4.23,14.52-14.52,11.63-11.63,20.47-20.48v-28.94l-20.47,20.48-11.54,11.63-14.51,14.52-4.33,4.23v-29.03Z"/>
      <path class="cls-1" d="M631.76,60.83c1.67,0,3.3.43,4.89,1.29,1.59.86,2.83,2.09,3.72,3.68.89,1.59,1.33,3.26,1.33,4.99s-.44,3.36-1.31,4.94c-.87,1.58-2.1,2.81-3.68,3.69-1.58.87-3.23,1.31-4.95,1.31s-3.37-.44-4.95-1.31c-1.58-.87-2.81-2.1-3.69-3.69-.88-1.58-1.32-3.23-1.32-4.94s.45-3.4,1.34-4.99c.89-1.59,2.13-2.82,3.72-3.68,1.59-.86,3.22-1.29,4.89-1.29ZM631.76,62.48c-1.4,0-2.76.36-4.08,1.08-1.32.71-2.36,1.74-3.1,3.07-.75,1.33-1.12,2.72-1.12,4.16s.37,2.81,1.1,4.12c.74,1.32,1.76,2.34,3.08,3.08,1.32.73,2.69,1.1,4.13,1.1s2.81-.37,4.13-1.1c1.32-.74,2.34-1.76,3.07-3.08.73-1.31,1.1-2.68,1.1-4.12s-.37-2.83-1.11-4.16-1.78-2.36-3.1-3.07c-1.33-.72-2.69-1.08-4.07-1.08ZM627.4,76.28v-10.7h3.68c1.26,0,2.17.1,2.73.3s1.01.54,1.34,1.03c.34.49.5,1.02.5,1.57,0,.78-.28,1.46-.84,2.04-.56.58-1.3.9-2.22.98.38.15.68.34.91.57.43.42.96,1.13,1.58,2.12l1.3,2.09h-2.11l-.95-1.69c-.75-1.33-1.35-2.16-1.81-2.49-.32-.25-.78-.37-1.38-.37h-1.02v4.55h-1.73ZM629.12,70.25h2.1c1,0,1.69-.15,2.05-.45.36-.3.54-.69.54-1.18,0-.32-.09-.6-.26-.86-.18-.25-.42-.44-.73-.56-.31-.12-.89-.18-1.74-.18h-1.96v3.23Z"/>
    </g>
  </g>
</svg>